<svg preserveAspectRatio="none" width="100%" viewBox="0 0 597 691" fill="rgba(72, 169, 248, 0.53)" xmlns="http://www.w3.org/2000/svg">
<path d="M5 549.894V151.611C6.83394 150.715 8.72835 149.802 10.6738 148.864C29.0397 140.01 51.9502 128.965 71.431 109.777C93.6026 87.9378 111.167 55.8196 114.25 5H486.477C491.299 48.4246 507.97 77.0103 528.761 96.272C548.898 114.927 572.569 124.523 592 130.682V533.329C572.149 542.801 548.597 556.598 528.615 580.011C508.23 603.896 491.816 637.484 486.484 686H114.038C109.125 639.649 92.8673 607.689 71.8787 586.175C51.5269 565.315 27.0443 554.601 5 549.894Z" stroke="black" stroke-opacity="0.8" stroke-width="10"/>
<path d="M36 525.512V169.897C37.0175 169.416 38.0512 168.929 39.0996 168.435C57.031 159.987 79.2576 149.515 97.9024 130.709C117.973 110.465 133.744 80.7571 136.354 34H462.288C466.63 74.0364 482.644 100.806 502.468 118.955C521.907 136.754 544.838 146.107 563.5 151.739V516.559C544.525 525.159 521.772 537.865 502.5 559.497C482.975 581.413 467.171 612.323 462.295 657H136.221C127.465 572.197 78.7632 534.098 36 525.512Z" stroke="black" stroke-opacity="0.8" stroke-width="6"/>
</svg>
