<svg width="768" height="573" viewBox="0 0 768 573" fill="none" xmlns="http://www.w3.org/2000/svg">
<path d="M102.672 297.529C79.3775 273.962 41.3883 273.741 17.821 297.036C-5.74632 320.33 -5.96719 358.32 17.3276 381.887L102.672 297.529ZM447.743 382.317C471.275 358.987 471.439 320.998 448.109 297.465C424.779 273.933 386.79 273.769 363.257 297.099L447.743 382.317ZM231 512.708L188.328 554.887C199.525 566.216 214.768 572.627 230.696 572.707C246.624 572.788 261.931 566.532 273.243 555.317L231 512.708ZM17.3276 381.887L188.328 554.887L273.672 470.529L102.672 297.529L17.3276 381.887ZM273.243 555.317L447.743 382.317L363.257 297.099L188.757 470.099L273.243 555.317Z" fill="white"/>
<path d="M707.5 120.708C740.637 120.708 767.5 93.8451 767.5 60.708C767.5 27.5709 740.637 0.708024 707.5 0.708023L707.5 120.708ZM232.501 60.708L232.501 0.708012C216.588 0.708012 201.326 7.02942 190.074 18.2816C178.822 29.5338 172.501 44.795 172.501 60.708L232.501 60.708ZM292.501 518.509L292.501 60.708L172.501 60.708L172.501 518.509L292.501 518.509ZM232.501 120.708L707.5 120.708L707.5 0.708023L232.501 0.708012L232.501 120.708Z" fill="white"/>
</svg>
