<svg width="768" height="572" viewBox="0 0 768 572" fill="none" xmlns="http://www.w3.org/2000/svg">
<path d="M103.172 296.821C79.8775 273.254 41.8883 273.033 18.321 296.328C-5.24632 319.622 -5.46719 357.612 17.8276 381.179L103.172 296.821ZM448.243 381.609C471.775 358.279 471.939 320.29 448.609 296.757C425.279 273.225 387.29 273.061 363.757 296.391L448.243 381.609ZM231.5 512L188.828 554.179C200.025 565.508 215.268 571.919 231.196 571.999C247.124 572.08 262.431 565.824 273.743 554.609L231.5 512ZM17.8276 381.179L188.828 554.179L274.172 469.821L103.172 296.821L17.8276 381.179ZM273.743 554.609L448.243 381.609L363.757 296.391L189.257 469.391L273.743 554.609Z" fill="black"/>
<path d="M708 120C741.137 120 768 93.1371 768 60C768 26.8629 741.137 1.56899e-05 708 1.49617e-05L708 120ZM233.001 60L233.001 4.52384e-06C217.088 4.17416e-06 201.826 6.32142 190.574 17.5736C179.322 28.8258 173.001 44.087 173.001 60L233.001 60ZM293.001 517.801L293.001 60L173.001 60L173.001 517.801L293.001 517.801ZM233.001 120L708 120L708 1.49617e-05L233.001 4.52384e-06L233.001 120Z" fill="black"/>
</svg>
