<svg width="389" height="389" viewBox="0 0 389 389" fill="none" xmlns="http://www.w3.org/2000/svg">
<path d="M191.251 90.1378C202.097 79.5056 202.27 62.0944 191.638 51.2488C181.006 40.4032 163.594 40.2301 152.749 50.8622L191.251 90.1378ZM152.555 341.445C163.294 352.185 180.706 352.185 191.445 341.445C202.185 330.706 202.185 313.294 191.445 302.555L152.555 341.445ZM45 195L25.7488 175.362C20.5067 180.501 17.5369 187.523 17.5004 194.863C17.4639 202.204 20.3638 209.255 25.5546 214.445L45 195ZM152.749 50.8622L25.7488 175.362L64.2512 214.638L191.251 90.1378L152.749 50.8622ZM25.5546 214.445L152.555 341.445L191.445 302.555L64.4455 175.555L25.5546 214.445Z" fill="white"/>
<path d="M350.642 90.6378C361.487 80.0056 361.661 62.5944 351.028 51.7488C340.396 40.9032 322.985 40.7301 312.139 51.3622L350.642 90.6378ZM311.945 341.945C322.685 352.685 340.097 352.685 350.836 341.945C361.575 331.206 361.575 313.794 350.836 303.055L311.945 341.945ZM204.391 195.5L185.139 175.862C179.897 181.001 176.927 188.023 176.891 195.363C176.855 202.704 179.754 209.755 184.945 214.945L204.391 195.5ZM312.139 51.3622L185.139 175.862L223.642 215.138L350.642 90.6378L312.139 51.3622ZM184.945 214.945L311.945 341.945L350.836 303.055L223.836 176.055L184.945 214.945Z" fill="white"/>
</svg>
