<svg width="429" height="429" viewBox="0 0 429 429" fill="none" xmlns="http://www.w3.org/2000/svg">
<path d="M187.464 89.0877C193.29 83.233 202.753 83.1901 208.632 88.9916L338.804 217.445C344.708 223.271 344.763 232.783 338.926 238.677L155.606 423.79C149.757 429.696 140.22 429.72 134.342 423.842L115.115 404.615C110.095 399.595 109.536 391.793 111.974 385.126C127.213 343.453 84.3291 294.123 35.1494 310.05C29.1909 311.98 22.4701 311.159 17.9009 306.876L4.77417 294.569C-1.39728 288.784 -1.56624 279.042 4.40087 273.046L187.464 89.0877Z" fill="#40189D"/>
<path d="M228.089 50.411C222.238 56.262 222.23 65.7459 228.071 71.6066L356.815 200.779C362.7 206.684 372.272 206.657 378.124 200.718L423.973 154.184C429.787 148.283 429.717 138.787 423.817 132.972L407.252 116.647C402.874 112.333 396.336 111.293 390.406 112.911C344.495 125.436 302.91 83.4242 318.244 43.6565C320.966 36.5984 320.286 28.1969 314.67 23.1289L294.079 4.54732C288.151 -0.802818 279.07 -0.570132 273.423 5.07661L228.089 50.411Z" fill="#40189D"/>
</svg>
