<svg preserveAspectRatio="none" width="100%" viewBox="0 0 1357 691" fill="rgba(72, 169, 248, 0.53)" xmlns="http://www.w3.org/2000/svg">
<path d="M5 549.408V152.514C47.9608 142.891 79.9834 131.766 102.438 109.788C125.045 87.6615 137.235 55.2923 142.525 5H1210.44C1219.65 48.0253 1232.94 76.887 1255.57 96.3913C1278.05 115.771 1309.02 125.265 1352 131.358V532.439C1307.95 541.885 1277.61 555.708 1255.72 579.902C1233.87 604.043 1221.02 637.893 1210.47 686H154.583C145.061 640.102 132.572 607.796 109.479 586.028C86.3777 564.254 53.4728 553.766 5 549.408Z" stroke="black" stroke-opacity="0.8" stroke-width="10"/>
<path d="M38 524.732V176.431C79.6158 167.511 110.028 155.516 131.209 133.686C152.425 111.82 163.963 80.5307 168.894 34H1187.12C1195.85 73.7945 1208.42 101.558 1229.67 120.721C1250.89 139.851 1280.35 150.027 1322 155.631V511.04C1279.47 519.68 1250.66 533.657 1230 557.004C1209.38 580.296 1197.21 612.559 1187.14 657H180.501C171.428 614.543 159.629 583.292 137.927 561.734C116.176 540.127 84.9306 528.688 38 524.732Z" stroke="black" stroke-opacity="0.8" stroke-width="6"/>
</svg>
