<svg width="24" height="22" viewBox="0 0 24 22" fill="none" xmlns="http://www.w3.org/2000/svg">
<path d="M3.78204 11.1613L15.9595 7.22009L22.8414 12.9062L8.35775 19.5318L3.78204 11.1613Z" fill="#1BCF85"/>
<path d="M1.08542 6.09754L11.4814 3.51074L15.9595 7.19571L3.78204 11.1125L1.08542 6.09754Z" fill="#48A9F8"/>
<path d="M2.8913 5.69478L10.2368 3.85229L11.579 5.07248L3.90405 7.20781L2.8913 5.69478Z" fill="#4E36E2"/>
<path d="M8.68719 14.7853L18.2413 11.0637L21.0843 13.6993L10.9201 18.3116L8.68719 14.7853Z" fill="#8BC741"/>
<path d="M3.77016 11.1857L16.0571 7.20858M2.84248 5.59975L3.87965 7.22008L11.5668 5.08475L10.127 3.7765M11.0055 18.3844L8.69939 14.7975L18.2169 11.0759L21.1575 13.7683M1 6.06091L11.4814 3.4375L23 12.9306L8.32113 19.605L1 6.06091Z" stroke="black" stroke-width="0.4" stroke-linejoin="round"/>
<path d="M7.21075 8.58667L13.6411 8.01318L8.7848 11.027L7.21075 8.58667Z" fill="#FF2E00" stroke="black" stroke-width="0.4"/>
</svg>
